<svg width="13" height="14" viewBox="0 0 13 14" fill="none" xmlns="http://www.w3.org/2000/svg">
<path fill-rule="evenodd" clip-rule="evenodd" d="M6.5 13.75C9.6066 13.75 12.125 11.2316 12.125 8.125C12.125 5.0184 9.6066 2.5 6.5 2.5C3.3934 2.5 0.875 5.0184 0.875 8.125C0.875 11.2316 3.3934 13.75 6.5 13.75ZM6.5 5.15625C6.75888 5.15625 6.96875 5.36612 6.96875 5.625V8.125C6.96875 8.38388 6.75888 8.59375 6.5 8.59375C6.24112 8.59375 6.03125 8.38388 6.03125 8.125V5.625C6.03125 5.36612 6.24112 5.15625 6.5 5.15625Z" fill="#D1D1D1"/>
<path fill-rule="evenodd" clip-rule="evenodd" d="M4.78125 1.25C4.78125 0.991117 4.99112 0.78125 5.25 0.78125H7.75C8.00888 0.78125 8.21875 0.991117 8.21875 1.25C8.21875 1.50888 8.00888 1.71875 7.75 1.71875H5.25C4.99112 1.71875 4.78125 1.50888 4.78125 1.25Z" fill="#D1D1D1"/>
</svg>
